<?xml version="1.0" standalone="no"?>
<!DOCTYPE svg PUBLIC "-//W3C//DTD SVG 20010904//EN"
 "http://www.w3.org/TR/2001/REC-SVG-20010904/DTD/svg10.dtd">
<svg version="1.0" xmlns="http://www.w3.org/2000/svg"
 width="241.000000pt" height="178.000000pt" viewBox="0 0 241.000000 178.000000"
 preserveAspectRatio="xMidYMid meet">

<g transform="translate(0.000000,178.000000) scale(0.100000,-0.100000)"
fill="#000000" stroke="none">
<path d="M363 1434 c-100 -49 -95 -201 7 -241 l40 -16 0 -294 c0 -189 4 -293
10 -293 6 0 10 105 10 294 l0 294 29 7 c15 3 40 18 55 34 106 110 -15 282
-151 215z m138 -40 c54 -52 44 -139 -20 -177 -99 -58 -209 50 -156 153 33 65
121 77 176 24z"/>
<path d="M1084 1440 c-143 -29 -280 -163 -320 -314 -80 -299 191 -586 498
-527 223 44 379 266 341 485 -43 249 -270 405 -519 356z m263 -50 c211 -98
300 -350 196 -557 -38 -74 -135 -164 -210 -194 -82 -33 -224 -33 -306 0 -76
30 -172 120 -210 195 -101 201 -21 448 180 551 103 53 242 55 350 5z"/>
<path d="M1073 1229 c-88 -44 -127 -117 -121 -224 4 -85 33 -138 100 -182 37
-25 50 -28 129 -28 81 0 90 2 131 30 24 17 55 52 71 80 24 44 27 59 25 126 -3
63 -8 82 -31 117 -45 69 -97 96 -186 100 -62 2 -84 -1 -118 -19z m228 -34 c64
-45 91 -104 87 -187 -3 -55 -9 -75 -34 -110 -86 -123 -262 -122 -349 0 -27 40
-30 51 -30 122 0 71 3 82 30 121 45 64 104 91 187 87 55 -3 75 -9 109 -33z"/>
<path d="M1810 1315 l0 -135 45 0 45 0 0 -295 c0 -190 4 -295 10 -295 6 0 10
105 10 295 l0 295 45 0 45 0 0 135 c0 83 -4 135 -10 135 -6 0 -10 -48 -10
-125 l0 -125 -35 0 -35 0 0 125 c0 77 -4 125 -10 125 -6 0 -10 -48 -10 -125
l0 -125 -35 0 -35 0 0 125 c0 77 -4 125 -10 125 -6 0 -10 -52 -10 -135z"/>
<path d="M400 465 c-7 -9 -10 -18 -7 -22 8 -7 37 15 37 28 0 14 -16 11 -30 -6z"/>
<path d="M450 460 c-6 -11 -7 -20 -2 -20 10 0 32 21 32 32 0 16 -19 8 -30 -12z"/>
<path d="M736 464 c-4 -9 -4 -19 -1 -22 6 -6 35 18 35 29 0 16 -28 10 -34 -7z"/>
<path d="M1140 465 c-21 -25 -1 -31 23 -7 17 18 18 22 5 22 -8 0 -21 -7 -28
-15z"/>
<path d="M180 365 l0 -105 48 0 c27 0 57 7 70 16 27 19 30 69 5 83 -17 9 -17
10 0 28 22 25 22 38 -3 63 -15 15 -33 20 -70 20 l-50 0 0 -105z m98 73 c31
-31 8 -58 -49 -58 -27 0 -29 3 -29 35 0 33 2 35 33 35 18 0 38 -5 45 -12z m3
-88 c44 -24 11 -70 -50 -70 -29 0 -31 2 -31 40 0 38 2 40 31 40 17 0 39 -5 50
-10z"/>
<path d="M1247 427 c-10 -15 -13 -27 -7 -27 6 0 10 -25 10 -58 0 -63 11 -82
47 -82 30 0 30 18 1 22 -20 3 -23 10 -26 61 -3 55 -2 57 23 57 14 0 25 5 25
10 0 6 -11 10 -24 10 -15 0 -26 7 -28 17 -2 14 -7 12 -21 -10z"/>
<path d="M1347 425 c-10 -14 -13 -25 -7 -25 6 0 10 -24 10 -58 0 -32 5 -63 12
-70 15 -15 58 -16 58 -2 0 6 -9 10 -20 10 -18 0 -20 7 -20 60 0 53 2 60 20 60
11 0 20 5 20 10 0 6 -9 10 -20 10 -11 0 -20 7 -20 15 0 22 -12 18 -33 -10z"/>
<path d="M380 400 c-13 -13 -20 -33 -20 -60 0 -49 27 -80 70 -80 64 0 93 78
49 134 -25 32 -70 35 -99 6z m88 -33 c20 -41 4 -81 -33 -85 -34 -4 -55 18 -55
59 0 59 63 78 88 26z"/>
<path d="M546 407 c-27 -20 -15 -50 29 -73 54 -28 53 -49 -3 -49 -52 0 -50
-19 2 -23 75 -6 88 47 21 85 -50 28 -52 48 -5 49 52 2 56 3 40 14 -21 14 -63
12 -84 -3z"/>
<path d="M691 394 c-27 -34 -27 -74 0 -108 18 -23 28 -27 62 -24 22 2 42 8 44
14 2 6 -10 8 -32 6 -37 -4 -65 11 -65 34 0 10 14 14 50 14 48 0 50 1 50 28 0
60 -72 83 -109 36z m77 -6 c24 -24 13 -38 -28 -38 -26 0 -40 5 -40 13 0 18 21
37 40 37 9 0 21 -5 28 -12z"/>
<path d="M856 404 c-17 -16 -21 -55 -8 -68 12 -12 8 -65 -5 -71 -16 -6 -17
-47 -1 -63 17 -17 80 -15 106 4 16 11 22 24 20 42 -3 23 -9 28 -45 33 -24 3
-45 8 -49 11 -11 12 7 28 30 28 30 0 46 18 46 52 0 15 5 28 10 28 6 0 10 5 10
10 0 17 -97 12 -114 -6z m69 -33 c0 -34 -30 -51 -51 -29 -25 24 -10 60 24 56
21 -2 27 -8 27 -27z m20 -121 c11 -19 -16 -40 -51 -40 -35 0 -49 12 -40 35 6
17 81 21 91 5z"/>
<path d="M1100 402 c-16 -13 -23 -29 -24 -59 -1 -58 25 -85 78 -81 22 2 41 8
43 14 2 6 -10 8 -32 6 -37 -4 -65 11 -65 34 0 10 14 14 50 14 60 0 73 18 43
58 -25 33 -62 39 -93 14z m68 -14 c24 -24 13 -38 -28 -38 -26 0 -40 5 -40 13
0 18 21 37 40 37 9 0 21 -5 28 -12z"/>
<path d="M1470 400 c-13 -13 -20 -33 -20 -60 0 -53 27 -80 80 -80 26 0 40 5
40 13 0 9 -11 12 -37 9 -27 -3 -40 0 -50 14 -21 29 -16 34 42 34 52 0 55 1 55
25 0 14 -9 34 -20 45 -11 11 -31 20 -45 20 -14 0 -34 -9 -45 -20z m64 -6 c9
-3 16 -15 16 -25 0 -15 -7 -19 -33 -19 -41 0 -49 7 -36 31 10 20 26 23 53 13z"/>
<path d="M1620 340 c0 -47 4 -80 10 -80 6 0 10 24 10 53 0 57 19 87 53 87 9 0
17 5 17 10 0 16 -37 12 -54 -6 -15 -14 -16 -14 -16 0 0 9 -4 16 -10 16 -6 0
-10 -33 -10 -80z"/>
<path d="M1751 394 c-47 -60 -15 -134 58 -134 54 0 62 18 10 22 -30 2 -46 9
-57 26 -14 22 -14 22 42 22 53 0 56 1 56 25 0 32 -33 65 -64 65 -15 0 -33 -11
-45 -26z m78 -13 c13 -24 5 -31 -36 -31 -34 0 -43 16 -21 38 18 18 46 15 57
-7z"/>
<path d="M1900 340 c0 -63 3 -80 15 -80 10 0 15 16 17 61 3 65 19 88 52 76 12
-5 16 -20 16 -72 0 -50 3 -65 15 -65 10 0 15 16 17 61 3 65 19 88 52 76 12 -5
16 -20 16 -72 0 -51 3 -65 15 -65 12 0 15 13 15 58 0 88 -34 122 -92 91 -14
-8 -23 -8 -31 0 -15 15 -50 14 -66 -1 -11 -10 -14 -10 -18 0 -13 34 -23 4 -23
-68z"/>
</g>
</svg>
